<svg width="70" height="70" viewBox="0 0 70 70" fill="none" xmlns="http://www.w3.org/2000/svg">
<g clip-path="url(#clip0_14_62)">
<path d="M45.3542 37.9168C47.5417 37.9168 49.4667 36.721 50.4584 34.9127L60.9 15.9835C61.9792 14.0585 60.5792 11.6668 58.3625 11.6668H15.1959L12.4542 5.8335H2.91669V11.6668H8.75002L19.25 33.8043L15.3125 40.921C13.1834 44.8293 15.9834 49.5835 20.4167 49.5835H55.4167V43.7502H20.4167L23.625 37.9168H45.3542ZM17.9667 17.5002H53.4042L45.3542 32.0835H24.8792L17.9667 17.5002ZM20.4167 52.5002C17.2084 52.5002 14.6125 55.1252 14.6125 58.3335C14.6125 61.5418 17.2084 64.1668 20.4167 64.1668C23.625 64.1668 26.25 61.5418 26.25 58.3335C26.25 55.1252 23.625 52.5002 20.4167 52.5002ZM49.5834 52.5002C46.375 52.5002 43.7792 55.1252 43.7792 58.3335C43.7792 61.5418 46.375 64.1668 49.5834 64.1668C52.7917 64.1668 55.4167 61.5418 55.4167 58.3335C55.4167 55.1252 52.7917 52.5002 49.5834 52.5002Z" fill="#E7C12B"/>
</g>
<defs>
<clipPath id="clip0_14_62">
<rect width="70" height="70" fill="white"/>
</clipPath>
</defs>
</svg>
